<svg class="thumb" width="1000" height="1000" viewBox="0,0,600,600" xmlns="http://www.w3.org/2000/svg" xmlns:inkscape="http://www.inkscape.org/namespaces/inkscape" xmlns:sodipodi="http://sodipodi.sourceforge.net/DTD/sodipodi-0.dtd" xmlns:xlink="http://www.w3.org/1999/xlink" xmlns:ns1="http://www.inkscape.org/namespaces/inkscape" xmlns:sketch="http://www.bohemiancoding.com/sketch/ns">
  <defs></defs>
  <g transform="matrix(0.9201,0,0,0.9201,-21.6702,253.9942)">
    <g transform="matrix(1.0968,0,0,1.0968,50.6716,0.6435)">
      <svg width="90" height="90" viewBox="5,5,90,90">
        <defs>
          <linearGradient x1="0.85" y1="0.15" x2="0.15" y2="0.85" id="linearGradientSkicvqoww4">
            <stop offset="0%" stop-color="#16c0f0"></stop>
            <stop offset="100%" stop-color="#8a25b1"></stop>
          </linearGradient>
        </defs>
        <g></g>
        <g></g>
        <g>
          <path d="M60,20c-16.563,0-30,13.431-30,29.997c0,11.045,8.955,20,20,20s19.997-8.955,20-20c0-7.357-5.967-13.331-13.333-13.331  c-7.363,0-13.334,5.974-13.334,13.333c0,3.685,2.985,6.667,6.667,6.667s6.667-2.982,6.667-6.667H50c0-3.685,2.985-6.667,6.667-6.667  s6.666,2.982,6.666,6.667c0,7.366-5.97,13.333-13.333,13.333S36.667,57.366,36.667,50c0-11.042,8.955-20,20-20  c11.048,0,19.996,8.955,20,19.997v-0.004V50v-0.003C76.663,64.724,64.727,76.663,50,76.663S23.333,64.724,23.333,49.997V50v-0.007  v0.004c0-20.248,16.42-36.664,36.667-36.664c2.624,0,5.179,0.286,7.646,0.811C62.317,11.517,56.341,10,50,10  c-22.09,0-40,17.91-40,40s17.91,40,40,40s40-17.91,40-40c0-1.035-0.078-2.051-0.156-3.066C88.308,31.807,75.534,20,60,20z" stroke="none" fill="url('#linearGradientSkicvqoww4')" style=""></path>
        </g>
      </svg>
    </g>
    <g transform="matrix(0.5559,0,0,0.5559,161.0108,18.2392)">
      <svg width="868.3000000000001" height="183" style="overflow: visible;">
        <defs>
          <linearGradient x1="0" y1="0.5" x2="1" y2="0.5" id="linearGradientSkicvqowwc">
            <stop offset="0%" stop-color="#343f4d"></stop>
            <stop offset="100%" stop-color="#343f4d"></stop>
          </linearGradient>
        </defs>
        <g transform="matrix(1,0,0,1,0,92.25)">
          <path d="M 19.2-52.1L 19.2-52.1Q 17.5-47.9  16.8-43.6Q 16.1-39.3  16.1-34.7L 16.1-34.7Q 16.1-29.6  16.8-24.65Q 17.5-19.7  19.4-15.8Q 21.3-11.9  24.6-9.55Q 27.9-7.2  33-7.2L 33-7.2Q 38.5-7.2  41.75-9.95Q 45-12.7  46.75-16.8Q 48.5-20.9  49.05-25.6Q 49.6-30.3  49.6-34.2L 49.6-34.2Q 49.6-38.2  49.05-42.9Q 48.5-47.6  46.8-51.65Q 45.1-55.7  41.75-58.4Q 38.4-61.1  32.9-61.1L 32.9-61.1Q 27.8-61.1  24.35-58.7Q 20.9-56.3  19.2-52.1ZM 15.6-4.7L 15.6-4.7Q 4.9-13.9  4.9-34.1L 4.9-34.1Q 4.9-42.3  6.75-48.85Q 8.6-55.4  12.15-60Q 15.7-64.6  20.9-67.1Q 26.1-69.6  32.9-69.6L 32.9-69.6Q 39.6-69.6  44.85-67.15Q 50.1-64.7  53.6-60.1Q 57.1-55.5  58.95-48.9Q 60.8-42.3  60.8-34.1L 60.8-34.1Q 60.8-25.9  58.95-19.35Q 57.1-12.8  53.6-8.2Q 50.1-3.6  44.85-1.15Q 39.6 1.3  32.9 1.3L 32.9 1.3Q 22.3 1.3  15.6-4.7ZM 95.20000000000002 0.9L 95.20000000000002 0.9Q 89.60000000000002 0.9  83.80000000000003-2.4L 83.80000000000003-2.4L 83.80000000000003 14.9Q 83.80000000000003 18.4  82.55000000000003 19.95Q 81.30000000000003 21.5  78.20000000000003 21.5L 78.20000000000003 21.5L 74.20000000000003 21.5L 73.60000000000002 20.9L 73.60000000000002-49.2L 74.20000000000003-49.8L 77.40000000000002-49.8Q 82.40000000000003-49.8  83.50000000000003-44.7L 83.50000000000003-44.7Q 89.30000000000003-50.7  97.40000000000003-50.7L 97.40000000000003-50.7Q 101.40000000000003-50.7  104.60000000000002-48.9Q 107.80000000000003-47.1  109.95000000000002-43.7Q 112.10000000000002-40.3  113.25000000000003-35.55Q 114.40000000000003-30.8  114.40000000000003-24.8L 114.40000000000003-24.8Q 114.40000000000003-18.8  112.90000000000003-14Q 111.40000000000003-9.2  108.75000000000003-5.9Q 106.10000000000002-2.6  102.60000000000002-0.85Q 99.10000000000002 0.9  95.20000000000002 0.9ZM 94.80000000000003-42L 94.80000000000003-42Q 88.30000000000003-42  83.80000000000003-35.5L 83.80000000000003-35.5L 83.80000000000003-11Q 86.40000000000003-9.3  88.85000000000002-8.35Q 91.30000000000003-7.4  93.50000000000003-7.4L 93.50000000000003-7.4Q 98.20000000000002-7.4  101.05000000000003-12Q 103.90000000000003-16.6  103.90000000000003-25.1L 103.90000000000003-25.1Q 103.90000000000003-33.8  101.30000000000003-37.9Q 98.70000000000002-42  94.80000000000003-42ZM 163.2-21.4L 163.2-21.4L 133.79999999999998-21.4Q 134.1-14.5  136.74999999999997-10.8Q 139.39999999999998-7.1  145.7-7.1L 145.7-7.1Q 148.7-7.1  152.14999999999998-8Q 155.59999999999997-8.9  159.29999999999998-10.9L 159.29999999999998-10.9Q 161.79999999999998-8.6  162.59999999999997-4.3L 162.59999999999997-4.3Q 154.59999999999997 1.3  143.79999999999998 1.3L 143.79999999999998 1.3Q 138.1 1.3  134.2-0.7Q 130.29999999999998-2.7  127.84999999999998-6.2Q 125.39999999999998-9.7  124.29999999999998-14.55Q 123.19999999999999-19.4  123.19999999999999-25L 123.19999999999999-25Q 123.19999999999999-30.5  124.59999999999998-35.25Q 125.99999999999999-40  128.6-43.4Q 131.2-46.8  135.04999999999998-48.75Q 138.89999999999998-50.7  143.7-50.7L 143.7-50.7Q 148.49999999999997-50.7  152.25-49.1Q 156-47.5  158.59999999999997-44.65Q 161.2-41.8  162.54999999999998-37.85Q 163.89999999999998-33.9  163.89999999999998-29.3L 163.89999999999998-29.3Q 163.89999999999998-27.3  163.75-25.35Q 163.59999999999997-23.4  163.2-21.4ZM 143.99999999999997-43L 143.99999999999997-43Q 134.49999999999997-43  133.79999999999998-28.9L 133.79999999999998-28.9L 154-28.9L 154-30.2Q 154-35.9  151.54999999999998-39.45Q 149.1-43  143.99999999999997-43ZM 215.99999999999994-33.9L 215.99999999999994-33.9L 215.99999999999994-10.6Q 215.99999999999994-4.7  217.69999999999996-1.5L 217.69999999999996-1.5Q 215.09999999999997 0.7  211.59999999999997 0.7L 211.59999999999997 0.7Q 208.19999999999996 0.7  206.94999999999996-0.95Q 205.69999999999996-2.6  205.69999999999996-5.9L 205.69999999999996-5.9L 205.69999999999996-31.3Q 205.69999999999996-36.5  204.34999999999997-38.7Q 202.99999999999994-40.9  199.69999999999996-40.9L 199.69999999999996-40.9Q 196.39999999999995-40.9  192.94999999999996-39.25Q 189.49999999999994-37.6  186.89999999999995-34.7L 186.89999999999995-34.7L 186.89999999999995 0Q 185.19999999999996 0.4  181.79999999999995 0.4L 181.79999999999995 0.4Q 180.19999999999996 0.4  178.89999999999995 0.3Q 177.59999999999997 0.2  176.59999999999997 0L 176.59999999999997 0L 176.59999999999997-49.2L 177.19999999999996-49.8L 181.09999999999997-49.8Q 186.49999999999994-49.8  186.79999999999995-43.6L 186.79999999999995-43.6Q 194.09999999999997-50.3  202.69999999999996-50.3L 202.69999999999996-50.3Q 209.39999999999995-50.3  212.69999999999996-45.85Q 215.99999999999994-41.4  215.99999999999994-33.9ZM 254.49999999999997-67.7L 255.09999999999997-68.4L 275.7-68.7Q 280.9-68.7  285.15-67.25Q 289.4-65.8  292.4-63Q 295.4-60.2  297-56.05Q 298.59999999999997-51.9  298.59999999999997-46.5L 298.59999999999997-46.5Q 298.59999999999997-41.1  296.95-36.9Q 295.29999999999995-32.7  292.29999999999995-29.85Q 289.29999999999995-27  285.04999999999995-25.55Q 280.79999999999995-24.1  275.7-24.1L 275.7-24.1L 265.09999999999997-24.1L 265.09999999999997 0Q 264 0.2  262.59999999999997 0.3Q 261.2 0.4  259.7 0.4L 259.7 0.4Q 258.29999999999995 0.4  256.9 0.3Q 255.49999999999997 0.2  254.49999999999997 0L 254.49999999999997 0L 254.49999999999997-67.7ZM 265.09999999999997-60.3L 265.09999999999997-32.5L 275.29999999999995-32.6Q 278.7-32.6  281.04999999999995-33.75Q 283.4-34.9  284.79999999999995-36.8Q 286.2-38.7  286.84999999999997-41.2Q 287.5-43.7  287.5-46.4L 287.5-46.4Q 287.5-49.2  286.84999999999997-51.7Q 286.2-54.2  284.79999999999995-56.1Q 283.4-58  281.04999999999995-59.1Q 278.7-60.2  275.4-60.2L 275.4-60.2Q 271.9-60.2  269.34999999999997-60.2Q 266.79999999999995-60.2  265.09999999999997-60.3L 265.09999999999997-60.3ZM 303.40000000000003-3.7L 303.40000000000003-3.7Q 303.5-5.4  304.5-7.55Q 305.5-9.7  306.8-10.9L 306.8-10.9Q 314.8-6.5  319.8-6.5L 319.8-6.5Q 324.90000000000003-6.5  327.35-8.2Q 329.8-9.9  329.8-12.7L 329.8-12.7Q 329.8-17.1  323.5-19.5L 323.5-19.5L 317.90000000000003-21.6Q 305.2-26.4  305.2-35.9L 305.2-35.9Q 305.2-42.8  310.15000000000003-46.75Q 315.1-50.7  323.1-50.7L 323.1-50.7Q 331.2-50.7  339.2-47.1L 339.2-47.1Q 339.2-45.1  338.35-42.9Q 337.5-40.7  336.1-39.5L 336.1-39.5Q 329-42.8  322.8-42.8L 322.8-42.8Q 319.5-42.8  317.55-41.2Q 315.6-39.6  315.6-37.2L 315.6-37.2Q 315.6-34.8  317.05-33.5Q 318.5-32.2  321.8-30.9L 321.8-30.9L 327.8-28.6Q 340.5-23.7  340.5-13.6L 340.5-13.6Q 340.5-6.7  335.2-2.7Q 329.90000000000003 1.3  320.8 1.3L 320.8 1.3Q 311.7 1.3  303.40000000000003-3.7ZM 389.4-49.1L 389.7-48.5L 376.49999999999994-1.6Q 374.7 4.7  372.74999999999994 9.15Q 370.79999999999995 13.6  368.24999999999994 16.4Q 365.7 19.2  362.24999999999994 20.5Q 358.79999999999995 21.8  354.2 21.8L 354.2 21.8Q 353.4 21.8  351.79999999999995 21.7Q 350.2 21.6  348.59999999999997 21.35Q 346.99999999999994 21.1  345.79999999999995 20.75Q 344.59999999999997 20.4  344.59999999999997 19.8L 344.59999999999997 19.8Q 344.59999999999997 18.1  345.2 16Q 345.79999999999995 13.9  346.9 12.8L 346.9 12.8Q 350.2 14.1  354.7 14.1L 354.7 14.1Q 358.99999999999994 14.1  361.7 11.05Q 364.4 8  366.29999999999995 1.7L 366.29999999999995 1.7L 366.59999999999997 0.5Q 363.4 0.4  361.59999999999997-0.75Q 359.79999999999995-1.9  358.9-4.9L 358.9-4.9L 345.7-48.6Q 349.29999999999995-50.1  351.99999999999994-50.1L 351.99999999999994-50.1Q 355.9-50.1  357.2-45.5L 357.2-45.5L 363.99999999999994-22.5Q 364.49999999999994-20.9  365.4-17.25Q 366.29999999999995-13.6  367.7-7.8L 367.7-7.8Q 367.79999999999995-7.1  368.59999999999997-7.1L 368.59999999999997-7.1L 379.59999999999997-49.4Q 380.4-49.6  381.45-49.7Q 382.49999999999994-49.8  383.79999999999995-49.8L 383.79999999999995-49.8Q 385.2-49.8  386.65-49.65Q 388.09999999999997-49.5  389.4-49.1L 389.4-49.1ZM 423.5999999999999-30.3L 423.5999999999999-30.3L 423.5999999999999-31.4Q 423.5999999999999-42.7  414.79999999999995-42.7L 414.79999999999995-42.7Q 409.99999999999994-42.7  407.3999999999999-38.1Q 404.79999999999995-33.5  404.79999999999995-24.4L 404.79999999999995-24.4Q 404.79999999999995-7.2  416.0999999999999-7.2L 416.0999999999999-7.2Q 421.69999999999993-7.2  428.19999999999993-12.2L 428.19999999999993-12.2Q 429.5999999999999-11.4  430.8999999999999-9.6Q 432.19999999999993-7.8  432.5999999999999-6.1L 432.5999999999999-6.1Q 425.19999999999993 1.3  414.69999999999993 1.3L 414.69999999999993 1.3Q 409.3999999999999 1.3  405.54999999999995-0.65Q 401.69999999999993-2.6  399.1499999999999-6.1Q 396.5999999999999-9.6  395.3499999999999-14.5Q 394.0999999999999-19.4  394.0999999999999-25.3L 394.0999999999999-25.3Q 394.0999999999999-31.4  395.79999999999995-36.15Q 397.49999999999994-40.9  400.3499999999999-44.1Q 403.19999999999993-47.3  406.94999999999993-49Q 410.69999999999993-50.7  414.8999999999999-50.7L 414.8999999999999-50.7Q 419.19999999999993-50.7  422.54999999999995-49.4Q 425.8999999999999-48.1  428.24999999999994-46Q 430.5999999999999-43.9  431.8499999999999-41.15Q 433.0999999999999-38.4  433.0999999999999-35.6L 433.0999999999999-35.6Q 433.0999999999999-29.9  427.8999999999999-29.9L 427.8999999999999-29.9Q 425.29999999999995-29.9  423.5999999999999-30.3ZM 483.79999999999984-33.8L 483.79999999999984-33.8L 483.79999999999984-10.6Q 483.79999999999984-4.6  485.39999999999986-1.5L 485.39999999999986-1.5Q 482.59999999999985 0.7  479.29999999999984 0.7L 479.29999999999984 0.7Q 475.99999999999983 0.7  474.74999999999983-0.95Q 473.49999999999983-2.6  473.49999999999983-5.9L 473.49999999999983-5.9L 473.49999999999983-31.3Q 473.49999999999983-36.5  472.14999999999986-38.7Q 470.79999999999984-40.9  467.49999999999983-40.9L 467.49999999999983-40.9Q 464.1999999999998-40.9  460.74999999999983-39.2Q 457.29999999999984-37.5  454.6999999999998-34.7L 454.6999999999998-34.7L 454.6999999999998 0Q 453.6999999999998 0.2  452.39999999999986 0.3Q 451.09999999999985 0.4  449.6999999999998 0.4L 449.6999999999998 0.4Q 448.29999999999984 0.4  446.9499999999998 0.3Q 445.59999999999985 0.2  444.59999999999985 0L 444.59999999999985 0L 444.59999999999985-72.9L 445.1999999999998-73.5L 449.1999999999998-73.5Q 452.29999999999984-73.5  453.49999999999983-72Q 454.6999999999998-70.5  454.6999999999998-66.9L 454.6999999999998-66.9L 454.6999999999998-43.6Q 461.99999999999983-50.2  470.49999999999983-50.2L 470.49999999999983-50.2Q 477.1999999999998-50.2  480.49999999999983-45.75Q 483.79999999999984-41.3  483.79999999999984-33.8ZM 531.6999999999998-4.2L 531.6999999999998-4.2Q 526.1999999999998 1.3  517.1999999999998 1.3L 517.1999999999998 1.3Q 511.9999999999998 1.3  507.9999999999998-0.55Q 503.9999999999998-2.4  501.2499999999998-5.85Q 498.4999999999998-9.3  497.0499999999998-14.05Q 495.59999999999974-18.8  495.59999999999974-24.7L 495.59999999999974-24.7Q 495.59999999999974-30.5  497.0499999999998-35.3Q 498.4999999999998-40.1  501.2499999999998-43.55Q 503.9999999999998-47  507.9999999999998-48.85Q 511.9999999999998-50.7  517.1999999999998-50.7L 517.1999999999998-50.7Q 522.3999999999997-50.7  526.3999999999997-48.85Q 530.3999999999997-47  533.1499999999997-43.55Q 535.8999999999997-40.1  537.3499999999998-35.3Q 538.7999999999997-30.5  538.7999999999997-24.7L 538.7999999999997-24.7Q 538.7999999999997-11.3  531.6999999999998-4.2ZM 517.1999999999998-42.8L 517.1999999999998-42.8Q 506.2999999999998-42.8  506.2999999999998-24.7L 506.2999999999998-24.7Q 506.2999999999998-6.6  517.1999999999998-6.6L 517.1999999999998-6.6Q 528.1999999999998-6.6  528.1999999999998-24.7L 528.1999999999998-24.7Q 528.1999999999998-42.8  517.1999999999998-42.8ZM 562.0999999999998-49.2L 574.3999999999999-49.5Q 574.8999999999999-47.8  574.8999999999999-45.6Q 574.8999999999999-43.4  574.3999999999999-41.8L 574.3999999999999-41.8L 562.0999999999998-42L 562.0999999999998-12.1Q 562.0999999999998-7.7  566.1999999999998-7.7L 566.1999999999998-7.7L 573.0999999999998-7.7Q 573.8999999999999-5.5  573.8999999999999-3.25Q 573.8999999999999-1  573.6999999999998-0.3L 573.6999999999998-0.3Q 567.8999999999999 0.4  562.4999999999999 0.4L 562.4999999999999 0.4Q 551.9999999999999 0.4  551.9999999999999-9.9L 551.9999999999999-9.9L 551.9999999999999-41.9L 544.5999999999998-41.8Q 544.1999999999998-43.5  544.1999999999998-45.55Q 544.1999999999998-47.6  544.5999999999998-49.5L 544.5999999999998-49.5L 551.9999999999999-49.3L 551.9999999999999-58.1Q 551.9999999999999-61.7  553.1999999999998-63.2Q 554.3999999999999-64.7  557.4999999999999-64.7L 557.4999999999999-64.7L 561.3999999999999-64.7L 562.0999999999998-64L 562.0999999999998-49.2ZM 624.2999999999997-33.8L 624.2999999999997-33.8L 624.2999999999997-10.6Q 624.2999999999997-4.6  625.8999999999997-1.5L 625.8999999999997-1.5Q 623.0999999999997 0.7  619.7999999999997 0.7L 619.7999999999997 0.7Q 616.4999999999998 0.7  615.2499999999998-0.95Q 613.9999999999998-2.6  613.9999999999998-5.9L 613.9999999999998-5.9L 613.9999999999998-31.3Q 613.9999999999998-36.5  612.6499999999997-38.7Q 611.2999999999997-40.9  607.9999999999998-40.9L 607.9999999999998-40.9Q 604.6999999999997-40.9  601.2499999999998-39.2Q 597.7999999999997-37.5  595.1999999999997-34.7L 595.1999999999997-34.7L 595.1999999999997 0Q 594.1999999999997 0.2  592.8999999999997 0.3Q 591.5999999999997 0.4  590.1999999999997 0.4L 590.1999999999997 0.4Q 588.7999999999997 0.4  587.4499999999997 0.3Q 586.0999999999997 0.2  585.0999999999997 0L 585.0999999999997 0L 585.0999999999997-72.9L 585.6999999999997-73.5L 589.6999999999997-73.5Q 592.7999999999997-73.5  593.9999999999998-72Q 595.1999999999997-70.5  595.1999999999997-66.9L 595.1999999999997-66.9L 595.1999999999997-43.6Q 602.4999999999998-50.2  610.9999999999998-50.2L 610.9999999999998-50.2Q 617.6999999999997-50.2  620.9999999999998-45.75Q 624.2999999999997-41.3  624.2999999999997-33.8ZM 676.0999999999999-21.4L 676.0999999999999-21.4L 646.6999999999999-21.4Q 646.9999999999999-14.5  649.65-10.8Q 652.3-7.1  658.5999999999999-7.1L 658.5999999999999-7.1Q 661.5999999999999-7.1  665.05-8Q 668.4999999999999-8.9  672.1999999999999-10.9L 672.1999999999999-10.9Q 674.6999999999999-8.6  675.4999999999999-4.3L 675.4999999999999-4.3Q 667.4999999999999 1.3  656.6999999999999 1.3L 656.6999999999999 1.3Q 650.9999999999999 1.3  647.0999999999999-0.7Q 643.1999999999999-2.7  640.7499999999999-6.2Q 638.3-9.7  637.1999999999999-14.55Q 636.0999999999999-19.4  636.0999999999999-25L 636.0999999999999-25Q 636.0999999999999-30.5  637.4999999999999-35.25Q 638.9-40  641.4999999999999-43.4Q 644.0999999999999-46.8  647.9499999999999-48.75Q 651.8-50.7  656.5999999999999-50.7L 656.5999999999999-50.7Q 661.4-50.7  665.15-49.1Q 668.9-47.5  671.4999999999999-44.65Q 674.0999999999999-41.8  675.4499999999999-37.85Q 676.8-33.9  676.8-29.3L 676.8-29.3Q 676.8-27.3  676.65-25.35Q 676.4999999999999-23.4  676.0999999999999-21.4ZM 656.9-43L 656.9-43Q 647.4-43  646.6999999999999-28.9L 646.6999999999999-28.9L 666.9-28.9L 666.9-30.2Q 666.9-35.9  664.4499999999999-39.45Q 661.9999999999999-43  656.9-43ZM 686.7-44.6L 686.7-44.6Q 687.7-48.3  690.5-50.1L 690.5-50.1Q 697.4000000000001-48.6  699.6-41.2L 699.6-41.2Q 703.6-50.1  712.7-50.1L 712.7-50.1Q 715.1-50.1  718-49.5L 718-49.5Q 718-43.7  715.5-39.7L 715.5-39.7Q 714.6-40  711.4000000000001-40.2L 711.4000000000001-40.2Q 704.6-40.2  700.7-32.6L 700.7-32.6L 700.7 0Q 698.8000000000001 0.4  695.5500000000001 0.4Q 692.3000000000001 0.4  690.4000000000001 0L 690.4000000000001 0L 690.4000000000001-34.3Q 690.4000000000001-41.1  686.7-44.6ZM 763.9-4.6L 763.9-4.6Q 762.6999999999999-1  760 0.7L 760 0.7Q 754.0999999999999-0.4  752-5.5L 752-5.5Q 744.9 1.3  737.4 1.3L 737.4 1.3Q 733.5999999999999 1.3  730.75 0.1Q 727.9-1.1  725.9499999999999-3.15Q 724-5.2  723.05-7.85Q 722.0999999999999-10.5  722.0999999999999-13.4L 722.0999999999999-13.4Q 722.0999999999999-21.6  727.3499999999999-25.8Q 732.5999999999999-30  741.3-30L 741.3-30Q 743.8-30  746.1999999999999-29.85Q 748.5999999999999-29.7  750.9-29.3L 750.9-29.3L 750.9-33.2Q 750.9-42.1  742.6999999999999-42.1L 742.6999999999999-42.1Q 737-42.1  727-38.3L 727-38.3Q 724.0999999999999-40.8  724-45.8L 724-45.8Q 734.1999999999999-50.4  744.6999999999999-50.4L 744.6999999999999-50.4Q 752.5-50.4  756.8-46.25Q 761.0999999999999-42.1  761.0999999999999-33.7L 761.0999999999999-33.7L 761.0999999999999-13.2Q 761.0999999999999-7  763.9-4.6ZM 739.0999999999999-6.9L 739.0999999999999-6.9Q 745.5-6.9  750.9-12.9L 750.9-12.9L 750.9-22.4Q 748.9-22.6  746.6999999999999-22.7Q 744.5-22.8  742.0999999999999-22.8L 742.0999999999999-22.8Q 737.5-22.8  734.9499999999999-20.55Q 732.4-18.3  732.4-14.6L 732.4-14.6Q 732.4-11  734.1999999999999-8.95Q 736-6.9  739.0999999999999-6.9ZM 797.9 0.9L 797.9 0.9Q 792.3 0.9  786.5-2.4L 786.5-2.4L 786.5 14.9Q 786.5 18.4  785.25 19.95Q 784 21.5  780.9 21.5L 780.9 21.5L 776.9 21.5L 776.3 20.9L 776.3-49.2L 776.9-49.8L 780.1-49.8Q 785.1-49.8  786.2-44.7L 786.2-44.7Q 792-50.7  800.1-50.7L 800.1-50.7Q 804.1-50.7  807.3-48.9Q 810.5-47.1  812.65-43.7Q 814.8-40.3  815.95-35.55Q 817.1-30.8  817.1-24.8L 817.1-24.8Q 817.1-18.8  815.6-14Q 814.1-9.2  811.45-5.9Q 808.8-2.6  805.3-0.85Q 801.8 0.9  797.9 0.9ZM 797.5-42L 797.5-42Q 791-42  786.5-35.5L 786.5-35.5L 786.5-11Q 789.1-9.3  791.55-8.35Q 794-7.4  796.2-7.4L 796.2-7.4Q 800.9-7.4  803.75-12Q 806.6-16.6  806.6-25.1L 806.6-25.1Q 806.6-33.8  804-37.9Q 801.4-42  797.5-42ZM 866.8000000000001-49.1L 867.1000000000001-48.5L 853.9000000000001-1.6Q 852.1000000000001 4.7  850.1500000000001 9.15Q 848.2000000000002 13.6  845.6500000000001 16.4Q 843.1000000000001 19.2  839.6500000000001 20.5Q 836.2000000000002 21.8  831.6000000000001 21.8L 831.6000000000001 21.8Q 830.8000000000001 21.8  829.2000000000002 21.7Q 827.6000000000001 21.6  826.0000000000001 21.35Q 824.4000000000001 21.1  823.2000000000002 20.75Q 822.0000000000001 20.4  822.0000000000001 19.8L 822.0000000000001 19.8Q 822.0000000000001 18.1  822.6000000000001 16Q 823.2000000000002 13.9  824.3000000000001 12.8L 824.3000000000001 12.8Q 827.6000000000001 14.1  832.1000000000001 14.1L 832.1000000000001 14.1Q 836.4000000000001 14.1  839.1000000000001 11.05Q 841.8000000000001 8  843.7000000000002 1.7L 843.7000000000002 1.7L 844.0000000000001 0.5Q 840.8000000000001 0.4  839.0000000000001-0.75Q 837.2000000000002-1.9  836.3000000000001-4.9L 836.3000000000001-4.9L 823.1000000000001-48.6Q 826.7000000000002-50.1  829.4000000000001-50.1L 829.4000000000001-50.1Q 833.3000000000001-50.1  834.6000000000001-45.5L 834.6000000000001-45.5L 841.4000000000001-22.5Q 841.9000000000001-20.9  842.8000000000001-17.25Q 843.7000000000002-13.6  845.1000000000001-7.8L 845.1000000000001-7.8Q 845.2000000000002-7.1  846.0000000000001-7.1L 846.0000000000001-7.1L 857.0000000000001-49.4Q 857.8000000000001-49.6  858.8500000000001-49.7Q 859.9000000000001-49.8  861.2000000000002-49.8L 861.2000000000002-49.8Q 862.6000000000001-49.8  864.0500000000001-49.65Q 865.5000000000001-49.5  866.8000000000001-49.1L 866.8000000000001-49.1Z" data-textpath="Open Psychotherapy" data-text-anchor="middle" data-font-size="100" data-letterspacing="0" data-side="left" data-offset="0.5" data-dx="0" data-dy="0" data-xmlspace="preserve" data-href="" data-font="Signika" data-font-src="/Content/clientfonts/signika.woff" data-font-scale="contain" transform="translate(0,0)" data-x="0" data-y="0" fill="url('#linearGradientSkicvqowwc')"></path>
        </g>
      </svg>
    </g>
  </g>
</svg>